<svg xmlns="http://www.w3.org/2000/svg" xmlns:xlink="http://www.w3.org/1999/xlink" width="500" zoomAndPan="magnify" viewBox="0 0 375 374.999991" height="500" preserveAspectRatio="xMidYMid meet" version="1.0"><defs><g/></defs><g fill="#475952" fill-opacity="1"><g transform="translate(219.751764, 330.338034)"><g><path d="M 2.3125 -34.0625 C 2.3125 -50.746094 -4.125 -65.808594 -21.25 -65.808594 C -35.125 -65.808594 -40.1875 -57.746094 -41.875 -41.5 C -42.9375 -31 -43.5 -29.9375 -45.8125 -29.9375 C -47.3125 -29.9375 -48.4375 -31.0625 -48.4375 -34 C -48.4375 -37.5625 -46.625 -39 -44.5625 -39.1875 L -44.4375 -64.058594 C -59.058594 -64.058594 -67.871094 -51.308594 -67.871094 -34.25 C -67.871094 -16.125 -60.558594 -4.0625 -44.8125 -4.0625 C -30.75 -4.0625 -25.0625 -13.875 -23.6875 -29.1875 C -23 -37 -22.125 -39.1875 -19.9375 -39.1875 C -18.0625 -39.1875 -16.75 -37.9375 -16.75 -34.0625 C -16.75 -29.6875 -18.875 -28 -21.6875 -27.75 L -21.75 -2.75 C -9.8125 -2.75 2.3125 -10.625 2.3125 -34.0625 Z M 2.3125 -34.0625 "/></g></g></g><g fill="#475952" fill-opacity="1"><g transform="translate(219.751764, 262.779662)"><g><path d="M 22.375 -33.4375 L 1.75 -33.4375 L -4.1875 -33.0625 C -0.3125 -37.25 2.3125 -43.125 2.3125 -49.5625 C 2.3125 -67.308594 -12.5625 -80.496094 -32.75 -80.496094 C -53.433594 -80.496094 -67.808594 -66.933594 -67.808594 -49.3125 C -67.808594 -43.3125 -65.746094 -36.8125 -60.121094 -31.625 L -65.621094 -30.5625 L -65.621094 -5 L 22.375 -5 Z M -22 -42.875 C -22 -37.6875 -26.1875 -33.25 -32.8125 -33.25 C -38.9375 -33.25 -43.5 -37.375 -43.5 -42.8125 C -43.5 -48.25 -39.8125 -52.496094 -32.8125 -52.496094 C -25.5 -52.496094 -22 -48.0625 -22 -42.875 Z M -22 -42.875 "/></g></g></g><g fill="#475952" fill-opacity="1"><g transform="translate(219.751764, 179.784734)"><g><path d="M 0 -33.4375 L -28.125 -33.4375 C -37.9375 -33.4375 -43.625 -38.1875 -43.625 -46.5625 L -43.625 -53.871094 L -65.621094 -53.871094 L -65.621094 -45.3125 C -65.621094 -38.9375 -62.871094 -35.125 -58.558594 -31.9375 L -65.621094 -30.6875 L -65.621094 -5 L 0 -5 Z M 0 -33.4375 "/></g></g></g><g fill="#475952" fill-opacity="1"><g transform="translate(219.751764, 124.975583)"><g><path d="M 2.3125 -39.9375 C 2.3125 -62.621094 -12.1875 -77.808594 -32.75 -77.808594 C -53.246094 -77.808594 -67.871094 -62.558594 -67.871094 -39.875 C -67.871094 -17.6875 -53.183594 -2.4375 -32.75 -2.4375 C -12.3125 -2.4375 2.3125 -17.6875 2.3125 -39.9375 Z M -22.125 -40.1875 C -22.125 -34.3125 -26.3125 -30.5 -32.8125 -30.5 C -39.25 -30.5 -43.4375 -34.3125 -43.4375 -40.1875 C -43.4375 -45.9375 -39.25 -49.75 -32.8125 -49.75 C -26.3125 -49.75 -22.125 -45.9375 -22.125 -40.1875 Z M -22.125 -40.1875 "/></g></g></g></svg>